<svg id="Component_227_2" data-name="Component 227 – 2" xmlns="http://www.w3.org/2000/svg" width="344" height="60" viewBox="0 0 344 60">
  <rect id="Rectangle_146" data-name="Rectangle 146" width="344" height="60" fill="#fff"/>
  <path id="Path_81" data-name="Path 81" d="M189.036,207.178c4.215,0,6.631.395,8.5,1.183,3.476,1.455,5.151,4.24,5.151,8.283A9.535,9.535,0,0,1,200.1,223.6c-1.9,1.9-4.782,2.982-9.909,2.982h-3.87v-19.4Zm-1.331,18.71h2.07c4.634,0,7.641-.764,9.416-2.835a9.425,9.425,0,0,0,2-6.359c0-4.192-1.7-6.484-4.24-7.666-1.873-.888-4.216-1.159-8.061-1.159h-1.182Z" transform="translate(-155.324 -184.972)" fill="#000001"/>
  <path id="Path_82" data-name="Path 82" d="M209.156,207.934h10.8v.739h-9.417v8.061h8.48v.739h-8.48v9.121h9.812v.739H209.156Zm4.167-.987h-.272l3.156-2.662h1.972Z" transform="translate(-149.353 -185.728)" fill="#000001"/>
  <path id="Path_83" data-name="Path 83" d="M232.816,207.178v13.385c0,3.748-.641,6.361-4.092,6.361-2.045,0-3.376-1.209-3.376-2.121,0-.492.2-.863.763-.863.542,0,.912.3,1.134,1.134a1.584,1.584,0,0,0,1.626,1.381c1.726,0,2.565-.691,2.565-5.893V207.178Z" transform="translate(-145.118 -184.972)" fill="#000001"/>
  <path id="Path_84" data-name="Path 84" d="M251.98,220.56h-8.358l-2.341,6.212h-1.109l7.765-20.336,7.839,20.336h-1.455Zm-7.963-1.06h7.543l-3.771-10.009Z" transform="translate(-141.242 -185.166)" fill="#000001"/>
  <path id="Path_85" data-name="Path 85" d="M272.818,207.917h-6.9v18.66h-1.379v-18.66h-6.9v-.739h15.185Z" transform="translate(-136.676 -184.972)" fill="#000001"/>
  <path id="Path_86" data-name="Path 86" d="M278.26,207.178h10.8v.739H279.64v8.061h8.48v.739h-8.48v9.121h9.811v.739H278.26Z" transform="translate(-131.281 -184.972)" fill="#000001"/>
  <path id="Path_87" data-name="Path 87" d="M319.97,226.621a13.032,13.032,0,0,1-3.155.395c-5.941,0-10.352-4.018-10.352-10.157,0-6.163,4.412-10.033,10.352-10.033,5.917,0,10.329,4.043,10.329,10.182a9.431,9.431,0,0,1-6.31,9.342l2.711,2.934-.542.59Zm-.592-.641-2.341-2.514.616-.592,2.589,2.811c2.91-1.159,5.374-3.9,5.374-8.751,0-6.754-4.708-9.417-8.8-9.417s-8.824,2.663-8.824,9.417c0,6.7,4.733,9.392,8.824,9.392A10.324,10.324,0,0,0,319.378,225.98Z" transform="translate(-123.905 -185.064)" fill="#000001"/>
  <path id="Path_88" data-name="Path 88" d="M347.264,207.178v9.935c0,3.18-.249,4.511-.717,5.62-1.109,2.638-3.475,4.191-6.878,4.191-3.55,0-5.988-1.455-7-4.389-.344-1.01-.542-2.194-.542-5.817v-9.54h1.38v9.638c0,3.477.174,4.61.517,5.5.864,2.293,2.885,3.477,5.694,3.477,2.984,0,4.832-1.233,5.769-3.377.444-1.01.641-2.292.641-5.3v-9.935Z" transform="translate(-117.193 -184.972)" fill="#000001"/>
  <path id="Path_89" data-name="Path 89" d="M355.058,207.178h10.8v.739h-9.416v8.061h8.48v.739h-8.48v9.121h9.812v.739H355.058Z" transform="translate(-111.196 -184.972)" fill="#000001"/>
  <path id="Path_90" data-name="Path 90" d="M377.145,207.16c4.264-.074,8.11.838,8.11,4.929,0,3.18-2.293,4.906-5.917,5.079,3.426.148,4.758,1.355,5.422,4.584.642,3.082,1.456,5.177,4,4.782l.024.049a5.711,5.711,0,0,1-1.924.346c-2.119,0-2.809-1.775-3.6-5.252-.862-3.845-2.489-4.115-6.261-4.115h-2.218v9.021H373.4V207.208Zm-2.367,9.786h2.145c3.1,0,6.778-.764,6.778-4.733,0-3.229-2.341-4.486-6.483-4.388l-2.44.049Z" transform="translate(-106.4 -184.978)" fill="#000001"/>
  <path id="Path_91" data-name="Path 91" d="M394.277,207.178h10.8v.739h-9.416v8.061h8.48v.739h-8.48v9.121h9.812v.739H394.277Z" transform="translate(-100.939 -184.972)" fill="#000001"/>
  <path id="Path_92" data-name="Path 92" d="M416.364,207.16c4.265-.074,8.11.838,8.11,4.929,0,3.18-2.292,4.906-5.917,5.079,3.426.148,4.758,1.355,5.425,4.584.64,3.082,1.453,5.177,3.993,4.782l.024.049a5.7,5.7,0,0,1-1.921.346c-2.122,0-2.812-1.775-3.6-5.252-.864-3.845-2.491-4.115-6.262-4.115H414v9.021h-1.381V207.208ZM414,216.945h2.143c3.107,0,6.779-.764,6.779-4.733,0-3.229-2.343-4.486-6.484-4.388l-2.438.049Z" transform="translate(-96.143 -184.978)" fill="#000001"/>
</svg>
