<svg xmlns="http://www.w3.org/2000/svg" width="171" height="115" viewBox="0 0 171 115"><rect width="171" height="115" fill="#fff"/><g transform="translate(18 37.909)"><g transform="translate(0 0)"><path d="M86.314,133.733h18.151c22.277,0,36.944,8.434,36.944,29.243,0,21.542-11.552,31.993-36.21,31.993H86.314v-.641H94.29V134.376H86.314Zm18.243.643H95.024v59.952H105.2c10.541,0,18.609-2.017,24.384-5.867,7.518-5.043,11.091-13.66,11.091-25.484C140.674,142.9,126.558,134.376,104.557,134.376Z" transform="translate(-86.314 -133.733)" fill="#1a1818"/></g></g><g transform="translate(45.547 14)"><g transform="translate(0)"><path d="M184.859,120.563v.092c13.2,1.284,32.726,5.684,47.211,8.983,18.883,4.309,42.077,11.093,53.442,11.093,5.959,0,10.085-1.925,12.376-3.759l.366.55c-2.291,1.833-6.141,3.85-12.742,3.85-11.734,0-34.925-6.783-53.442-11-19.344-4.4-34.835-7.884-49.044-9.258v-.733a203.506,203.506,0,0,0,36.117-13.292h-.092a17.883,17.883,0,0,1-6.783,1.376c-11.826,0-15.768-8.892-15.768-16.959,0-24.567,19.525-41.709,33.186-41.709,11.275,0,15.765,7.975,15.765,16.958,0,18.7-9.991,30.068-18.883,36.668C220.7,107.821,202.185,115.98,184.859,120.563ZM197.235,91.5c0,7.243,3.576,16.317,15.033,16.317a24.552,24.552,0,0,0,13.935-5.041A43.6,43.6,0,0,0,244.72,66.753c0-8.067-3.758-16.317-15.033-16.317C216.21,50.436,197.235,67.578,197.235,91.5Z" transform="translate(-183.026 -49.795)" fill="#1a1818"/></g></g></svg>