<svg id="Component_226_2" data-name="Component 226 – 2" xmlns="http://www.w3.org/2000/svg" width="200" height="113" viewBox="0 0 200 113">
  <rect id="Rectangle_144" data-name="Rectangle 144" width="200" height="113" fill="#fff"/>
  <g id="Group_167" data-name="Group 167" transform="translate(-233.509 -74.282)">
    <path id="Path_93" data-name="Path 93" d="M253.509,92.02v-.631c5.764-.271,13.871-.811,22.337-.811,21.888,0,36.3,10.268,36.3,30.355,0,21.166-11.169,32.335-33.687,32.335H253.509v-.63h7.836V91.659C259,91.749,257.471,91.839,253.509,92.02Zm22.337-.811c-4.683,0-9.458.18-13.781.36v61.069h16.393c21.708,0,32.966-10.629,32.966-31.705C311.424,101.3,297.464,91.209,275.846,91.209Z" fill="#040505"/>
  </g>
  <g id="Group_168" data-name="Group 168" transform="translate(-233.509 -74.282)">
    <path id="Path_94" data-name="Path 94" d="M425.971,166.753c-4.683,3.243-11.709,8.017-28.462,8.017-11.169,0-25.85-3.783-35.128-7.026A318.864,318.864,0,0,1,327.7,153.063a30.987,30.987,0,0,1-4.143.27c-18.824,0-31.164-14.322-31.164-31.886,0-14.591,11.529-31.165,31.616-31.165,18.824,0,31.164,14.322,31.164,31.886,0,13.15-9.277,28.193-26.3,30.714a311.411,311.411,0,0,0,33.686,14.232c9.1,3.153,24.14,7.025,34.949,7.025,16.124,0,23.149-4.593,28.1-7.926C425.612,166.213,426.062,166.663,425.971,166.753ZM293.115,121.447c0,17.114,11.89,31.255,30.444,31.255,19.456,0,30.9-16.123,30.9-30.534,0-17.114-11.889-31.256-30.443-31.256C304.555,90.912,293.115,107.035,293.115,121.447Z" fill="#040505"/>
  </g>
</svg>
